# xmcd
#
# Track frame offsets: 
#        162
#        8642
#        32167
#        53335
#        68820
#        83227
#        118597
#        139040
#        161565
#        190662
#        208220
#        245110
#        274192
#
# Disc length: 3863 seconds
#
# Revision: 5
# Processed by: cddbd v1.5.2PL0 Copyright (c) Steve Scherf et al.
# Submitted via: ExactAudioCopy v1.3
#
DISCID=b10f150d
DTITLE=B.B. King - Live at San Quentin
DYEAR=1990
DGENRE=Blues
TTITLE0=B.B. King Intro (Introduction by Warden Daniel Vasquez)
TTITLE1=Let the Good Times Roll
TTITLE2=Every Day I Have the Blues
TTITLE3=Whole Lotta Loving
TTITLE4=Sweet Little Angel
TTITLE5=Never Make a Move Too Soon
TTITLE6=Into the Night
TTITLE7=Ain't Nobody's Bizness
TTITLE8=The Thrill is Gone
TTITLE9=Peace to the World
TTITLE10=Nobody Loves Me But My Mother
TTITLE11=Sweet Sixteen
TTITLE12=Rock Me Baby
EXTD=YEAR: 1986 ID3G: 0
EXTT0=
EXTT1=
EXTT2=
EXTT3=
EXTT4=
EXTT5=
EXTT6=
EXTT7=
EXTT8=
EXTT9=
EXTT10=
EXTT11=
EXTT12=
PLAYORDER=
